# xmcd
#
# Track frame offsets:
#	150
#	14123
#	27408
#	40410
#	52839
#	66130
#	78617
#	91612
#	105645
#	117490
#	130367
#	144036
#	158296
#	169461
#	181828
#	195025
#	208304
#	221334
#	235862
#	249468
#	262072
#	276017
#	290103
#	302981
#	315282
#	328315
#	340645
#
# Disc length: 4720 seconds
#
# Revision: 1
# Processed by: cddbd v1.5.2PL0 Copyright (c) Steve Scherf et al.
# Submitted via: EasyCDDAExtractor 11.1.0.1
#
DISCID=85126e1b
DTITLE=Various Artist - The Tough Blues Of John Brim 1950-1956
DYEAR=2017
DGENRE=Blues
TTITLE0=John Brim with Grace Brim, Big Maceo And James Watkins - Starnge Man (
TTITLE0=195)
TTITLE1=John Brim with Grace Brim, Big Maceo And James Watkins - Mean Mean Blu
TTITLE1=es (1950)
TTITLE2=John Brim with Grace Brim, Big Maceo And James Watkins - Bus Driver (1
TTITLE2=950)
TTITLE3=John Brim with Grace Brim And Roosevelt Sykes - Dark Clouds (1951)
TTITLE4=John Brim with Grace Brim And Roosevelt Sykes - LOnesome Man (1951)
TTITLE5=John Brim with Grace Brim And Roosevelt Sykes - Going Down The Line (1
TTITLE5=951)
TTITLE6=John Brim with Grace Brim And Roosevelt Sykes - Leaving Daddy Blues (1
TTITLE6=951)
TTITLE7=John Brim with Sunnyland Slim And Moody Jones - Young And Wld (1951)
TTITLE8=John Brim with Sunnyland Slim And Moody Jones - I Love My Baby (1951)
TTITLE9=John Brim with Sunnyland Slim And Moody Jones - Trouble In The Morning
TTITLE9=(1951)
TTITLE10=John Brim with Grace Brin, Sunnyland Slim And Eddie Taylor - Humming 
TTITLE10=Blues (1952)
TTITLE11=John Brim with Grace Brim, Sunnyland Slim And Eddie Taylor - Man Arou
TTITLE11=nd My Door (1952)
TTITLE12=John Brim with Grace Brim, Sunnyland Slim And Eddie Taylor - Hospital
TTITLE12=ity Blues (1952)
TTITLE13=John Brim with Grace Brim, Sunnyland Slim And Eddie Boyd - Hard Pill 
TTITLE13=To Swallow (1952)
TTITLE14=John Brim with Grace Brim, Sunnyland Slim And Eddie Boyd - Drinking W
TTITLE14=oman (1952)
TTITLE15=John Brim with Ernest Cotton, Sunnyland Slim, Pete Franklin, Ernest "
TTITLE15=Big" Crawford And Alfred Wallace - Don't Leave Me (No Name Blues) (19
TTITLE15=52)
TTITLE16=John Brim with Ernest Cotton, Sunnyland Slim, Pete Franklin, Ernest "
TTITLE16=Big" Crawford And Alfred Wallace - Moonlight Blues (1952)
TTITLE17=John Brim with Little Walter, Louis Myers, Dave Myers, Willie Dixon A
TTITLE17=nd Fred Below - Rattlesnake (1953)
TTITLE18=John Brim with Little Walter, Louis Myers, Dave Myers, Willie Dixon A
TTITLE18=nd Fred Below - It Was A Dream (1953)
TTITLE19=John Brim with Little Walter, Eddie Taylor And Elga Edmonds - Ice Cre
TTITLE19=am Man (1953)
TTITLE20=John Brim with Little Walter, Eddie Taylor And Elga Edmonds - Lifetim
TTITLE20=e Baby (1953)
TTITLE21=John Brim with Jimmy Reed, Eddie Taylor And Grace Brim - Tough Times 
TTITLE21=(1954)
TTITLE22=John Brim with Jimmy Reed, Eddie Taylor And Grace Brim - Gary Stomp (
TTITLE22=1954)
TTITLE23=John Brim with James Dalton, W.C. Dalton And Grace Brim - Go Away (19
TTITLE23=55)
TTITLE24=John Brim with James Dalton, W.C. Dalton And Grace Brim - That Ain't 
TTITLE24=Right (1955)
TTITLE25=John Brim with Little Walter, Robert Lockwood Jr., Willie Dixon And F
TTITLE25=red Below - I Would Hate To See You Go (1956)
TTITLE26=John Brim with Little Walter, Robert Lockwood Jr., Willie Dixon And F
TTITLE26=red Below - You Got Me Where You Want Me (1956)
EXTD=
EXTT0=
EXTT1=
EXTT2=
EXTT3=
EXTT4=
EXTT5=
EXTT6=
EXTT7=
EXTT8=
EXTT9=
EXTT10=
EXTT11=
EXTT12=
EXTT13=
EXTT14=
EXTT15=
EXTT16=
EXTT17=
EXTT18=
EXTT19=
EXTT20=
EXTT21=
EXTT22=
EXTT23=
EXTT24=
EXTT25=
EXTT26=
PLAYORDER=
